<?xml version="1.0" standalone="no"?>
<!DOCTYPE svg PUBLIC "-//W3C//DTD SVG 20010904//EN"
 "http://www.w3.org/TR/2001/REC-SVG-20010904/DTD/svg10.dtd">
<svg version="1.0" xmlns="http://www.w3.org/2000/svg"
 width="700.000000pt" height="700.000000pt" viewBox="0 0 700.000000 700.000000"
 preserveAspectRatio="xMidYMid meet">
<metadata>
Created by potrace 1.11, written by Peter Selinger 2001-2013
</metadata>
<g transform="translate(0.000000,700.000000) scale(0.100000,-0.100000)"
fill="#000000" stroke="none">
<path d="M10 5832 c-7 -3 -10 -790 -10 -2335 l0 -2332 2382 1 c2131 1 2475 3
2568 18 14 3 48 7 75 11 141 17 419 96 555 157 164 73 307 153 410 227 157
113 186 137 321 271 183 181 308 350 423 571 71 136 141 309 176 434 23 84 25
93 40 165 5 25 12 56 14 69 3 14 8 45 11 70 3 25 8 57 11 71 9 43 12 401 4
485 -13 124 -20 177 -30 215 -5 19 -11 49 -13 65 -23 159 -145 476 -255 665
-47 79 -156 241 -194 286 -192 229 -348 372 -557 508 -325 212 -681 333 -1092
372 -72 7 -4819 12 -4839 6z m4231 -439 c1 -24 1 -3763 0 -3785 -1 -17 -99
-18 -1909 -18 l-1908 0 2 1908 c1 1049 2 1908 3 1910 0 1 858 2 1906 2 1807 0
1905 -1 1906 -17z m649 2 c19 -3 49 -8 65 -10 378 -49 772 -249 1060 -539 260
-263 425 -558 508 -911 15 -60 29 -133 32 -161 3 -28 8 -61 11 -75 7 -34 7
-335 0 -389 -26 -184 -24 -177 -56 -299 -119 -465 -432 -882 -856 -1143 -158
-98 -378 -188 -544 -223 -8 -2 -48 -11 -88 -19 -77 -17 -198 -29 -296 -30
l-60 -1 0 628 c-1 346 3 631 7 634 5 3 20 7 35 8 112 15 118 17 181 39 205 74
363 265 406 491 7 39 8 165 1 196 -3 13 -8 35 -10 49 -28 151 -151 322 -291
405 -90 52 -207 88 -292 88 -30 0 -33 3 -34 31 -3 96 -4 1214 -1 1228 4 15 15
17 96 13 50 -3 107 -7 126 -10z"/>
<path d="M2643 4845 c-191 -35 -307 -147 -344 -335 -20 -97 -19 -1927 0 -2020
29 -141 98 -238 209 -294 51 -26 68 -31 162 -46 61 -10 420 -7 460 4 14 4 36
9 50 12 83 17 186 94 233 175 56 95 64 168 66 562 l2 357 -201 0 -200 0 0 -92
c-1 -556 -1 -553 -20 -594 -25 -55 -51 -67 -153 -72 -111 -6 -165 12 -193 64
-18 33 -19 71 -19 939 0 898 0 904 21 932 33 45 79 63 165 63 89 0 141 -18
166 -57 16 -24 18 -60 21 -325 l3 -298 200 0 200 0 -4 343 c-2 188 -7 353 -10
366 -47 174 -131 263 -296 308 -75 21 -417 27 -518 8z"/>
<path d="M1189 4821 c-1 -22 -1 -2633 0 -2647 1 -7 135 -10 429 -10 l427 1 1
183 c0 100 -2 182 -5 183 -3 1 -103 2 -221 4 -118 1 -217 3 -220 4 -3 0 -5
518 -5 1149 l0 1148 -202 0 c-177 0 -203 -2 -204 -15z"/>
</g>
</svg>
