<?xml version="1.0" encoding="utf-8"?>
<!-- Generator: Adobe Illustrator 21.0.0, SVG Export Plug-In . SVG Version: 6.00 Build 0)  -->
<svg version="1.1" id="Layer_1" xmlns="http://www.w3.org/2000/svg" xmlns:xlink="http://www.w3.org/1999/xlink" x="0px" y="0px"
	 viewBox="0 0 1000 500" style="enable-background:new 0 0 1000 500;" xml:space="preserve">
<style type="text/css">
	.st0{fill:#DFDDD0;}
	.st1{fill:#F6F7F6;}
</style>
<rect class="st0" width="1000" height="500"/>
<g>
	<path class="st1" d="M575.5,205.8c-11.8-11.8-27.5-18.3-44.2-18.3h-125v125h125c16.7,0,32.4-6.5,44.2-18.3
		c11.8-11.8,18.3-27.5,18.3-44.2S587.2,217.6,575.5,205.8z M519.9,301.1H417.6V198.9h102.3V301.1L519.9,301.1z M567.4,286.2
		c-9.7,9.7-22.5,15-36.2,15V267c9.4,0,17-7.6,17-17s-7.6-17.1-17-17.1v-34.1c13.7,0,26.5,5.3,36.2,15c9.7,9.7,15,22.5,15,36.2
		S577.1,276.5,567.4,286.2z"/>
	<polygon class="st1" points="461,275.9 449,275.9 449,214.2 438,214.2 438,285.8 461,285.8 	"/>
	<path class="st1" d="M480.7,286.4h5.4c8.9,0,13.3-4.4,13.3-13.3v-16.7h-10.7v16.2c0,2.9-1.3,4.2-4.1,4.2h-2.1
		c-2.9,0-4.2-1.3-4.2-4.2v-45.2c0-2.9,1.3-4.2,4.2-4.2h1.8c2.8,0,4.1,1.3,4.1,4.2v14h10.7v-14.6c0-8.9-4.3-13.2-13.2-13.2h-5.3
		c-8.9,0-13.3,4.4-13.3,13.3v46.2C467.5,282,471.9,286.4,480.7,286.4z"/>
</g>
</svg>
