<?xml version="1.0" encoding="utf-8"?>
<!-- Generator: Adobe Illustrator 21.0.0, SVG Export Plug-In . SVG Version: 6.00 Build 0)  -->
<svg version="1.1" id="Layer_1" xmlns="http://www.w3.org/2000/svg" xmlns:xlink="http://www.w3.org/1999/xlink" x="0px" y="0px"
	 viewBox="0 0 1500 1500" style="enable-background:new 0 0 1500 1500;" xml:space="preserve">
<style type="text/css">
	.st0{fill:#FDADC6;}
	.st1{fill:#FF854A;}
	.st2{fill:#150000;}
	.st3{fill:#31383E;}
	.st4{fill:#FFFFFF;}
	.st5{fill:none;stroke:#FFFFFF;stroke-width:50;stroke-miterlimit:10;}
	.st6{fill:#31383E;stroke:#FFFFFF;stroke-width:50;stroke-miterlimit:10;}
</style>
<g>
	<path class="st3" d="M1353.6,396.4C1259.1,302,1133.6,250,1000,250H0v1000h1000c133.6,0,259.1-52,353.6-146.4
		c94.4-94.4,146.4-220,146.4-353.6S1448,490.9,1353.6,396.4z M909.1,1159.1H90.9V340.9h818.2V1159.1z M1289.3,1039.3
		c-77.3,77.3-180,119.8-289.3,119.8V886.4c75.2,0,136.4-61.2,136.4-136.4s-61.2-136.4-136.4-136.4V340.9
		c109.3,0,212,42.6,289.3,119.8c77.3,77.3,119.8,180,119.8,289.3S1366.5,962,1289.3,1039.3z"/>
	<polygon class="st3" points="438.4,957 341.9,957 341.9,463.6 254.3,463.6 254.3,1036.4 438.4,1036.4 	"/>
	<path class="st3" d="M595.9,1041.3h43.4c71.2,0,106.4-35.2,106.4-106.4V801.5h-85.9v129.3c0,22.9-10.6,33.5-32.7,33.5h-16.4
		c-22.9,0-33.5-10.6-33.5-33.5V569.2c0-22.9,10.6-33.5,33.5-33.5h14.7c22.1,0,32.7,10.6,32.7,33.5v112.1H744v-117
		c0-71.2-34.4-105.5-105.5-105.5h-42.5c-71.2,0-106.4,35.2-106.4,106.4v369.8C489.6,1006.1,524.8,1041.3,595.9,1041.3z"/>
</g>
</svg>
